# xmcd
#
# Track frame offsets: 
#        150
#        23333
#        45006
#        67428
#        82866
#        101587
#        117742
#        129805
#        146299
#        163286
#
# Disc length: 2437 seconds
#
# Revision: 2
# Processed by: cddbd v1.5.2PL0 Copyright (c) Steve Scherf et al.
# Submitted via: ExactAudioCopyFreeDBPlugin 1.0
#
DISCID=7a09830a
DTITLE=Radney Foster - This World We Live In
DYEAR=2006
DGENRE=Country
TTITLE0=Drunk On Love
TTITLE1=Sweet And Wild
TTITLE2=The Kindness Of Strangers
TTITLE3=Big Idea
TTITLE4=Half Of My Mistakes
TTITLE5=New Zip Code
TTITLE6=I Won't Lie To You
TTITLE7=Prove Me Right
TTITLE8=Fools That Dream
TTITLE9=Never Gonna Fly
EXTD=YEAR: 2006
EXTT0=
EXTT1=
EXTT2=
EXTT3=
EXTT4=
EXTT5=
EXTT6=
EXTT7=
EXTT8=
EXTT9=
PLAYORDER=
